<svg id="Layer_1" data-name="Layer 1" xmlns="http://www.w3.org/2000/svg" xmlns:xlink="http://www.w3.org/1999/xlink" viewBox="0 0 901.56 857.13"><defs><style>.cls-1{fill:red;stroke-width:13px;}.cls-1,.cls-4{stroke:#000673;stroke-miterlimit:10;}.cls-2{font-size:95px;}.cls-2,.cls-3,.cls-5{fill:#fff;}.cls-2,.cls-3{font-family:Vipnagorgialla;}.cls-3{font-size:98px;}.cls-4{fill:none;stroke-width:6px;}</style></defs><circle class="cls-1" cx="437.53" cy="464.02" r="372"/><text class="cls-2" transform="matrix(-0.42, -0.91, 0.91, -0.42, 192.96, 616.95)">S</text><text class="cls-2" transform="translate(154.56 521.96) rotate(-94.13)">U</text><text class="cls-2" transform="matrix(0.29, -0.96, 0.96, 0.29, 153.52, 414.08)">P</text><text class="cls-2" transform="translate(187.87 319.68) rotate(-53.28)">P</text><text class="cls-2" transform="translate(253.29 243.25) rotate(-34.65)">L</text><text class="cls-2" transform="translate(325.7 198.58) rotate(-16.66)">Y</text><text class="cls-2" transform="matrix(1, 0, 0, 1, 419.4, 177.56)"> </text><text class="cls-2" transform="translate(490.75 180.15) rotate(18.11)">O</text><text class="cls-2" transform="translate(590.84 219.79) rotate(38.77)">F</text><text class="cls-2" transform="matrix(0.52, 0.86, -0.86, 0.52, 664.93, 286.76)">F</text><text class="cls-2" transform="translate(710.47 376.3) rotate(74.91)">I</text><text class="cls-2" transform="translate(724.65 436.49) rotate(91.29)">C</text><text class="cls-2" transform="translate(716.51 536.97) rotate(111.41)">E</text><text class="cls-3" transform="matrix(0.85, 0.52, -0.52, 0.85, 225.34, 743.86)">2</text><text class="cls-3" transform="translate(336.16 800.58) rotate(10.56)">0</text><text class="cls-3" transform="matrix(0.98, -0.17, 0.17, 0.98, 463.86, 814.24)">2</text><text class="cls-3" transform="translate(584.1 783.24) rotate(-30.51)">2</text><image width="1080" height="1076" transform="translate(158.03 185.52) scale(0.52)" xlink:href="DEPED%20PNG.png"/><circle class="cls-4" cx="437.53" cy="464.02" r="271"/><circle class="cls-4" cx="437.53" cy="464.02" r="216.5"/><path class="cls-5" d="M170.57,625l-8.65-6.29a2.87,2.87,0,0,0-3.35,0L149.91,625a2.85,2.85,0,0,1-4.39-3.19l3.31-10.17a2.87,2.87,0,0,0-1-3.19l-8.66-6.29a2.85,2.85,0,0,1,1.67-5.15h10.7a2.85,2.85,0,0,0,2.71-2l3.31-10.18a2.85,2.85,0,0,1,5.42,0l3.31,10.18a2.85,2.85,0,0,0,2.71,2h10.7a2.84,2.84,0,0,1,1.67,5.15l-8.65,6.29a2.86,2.86,0,0,0-1,3.19L175,621.83A2.85,2.85,0,0,1,170.57,625Z" transform="translate(36.03 66.52)"/><path class="cls-5" d="M661,621l-8.65-6.29a2.87,2.87,0,0,0-3.35,0L640.31,621a2.85,2.85,0,0,1-4.38-3.18l3.3-10.18a2.86,2.86,0,0,0-1-3.19l-8.66-6.29a2.85,2.85,0,0,1,1.68-5.15h10.7a2.85,2.85,0,0,0,2.71-2l3.3-10.18a2.85,2.85,0,0,1,5.42,0L656.66,591a2.84,2.84,0,0,0,2.71,2h10.7a2.84,2.84,0,0,1,1.67,5.15l-8.65,6.29a2.86,2.86,0,0,0-1,3.19l3.31,10.18A2.85,2.85,0,0,1,661,621Z" transform="translate(36.03 66.52)"/></svg>